<mxfile host="app.diagrams.net" modified="2023-12-29T14:21:22.931Z" agent="Mozilla/5.0 (Macintosh; Intel Mac OS X 10_15_7) AppleWebKit/537.36 (KHTML, like Gecko) Chrome/120.0.0.0 Safari/537.36" version="22.1.16" etag="z2lXMADXBk4u_4lvCwMH" type="github">
  <diagram name="페이지-1" id="rZCY4ZQrS0QF1pop_o_U">
    <mxGraphModel>
      <root>
        <mxCell id="0" />
        <mxCell id="1" parent="0" />
      </root>
    </mxGraphModel>
  </diagram>
</mxfile>
